HIERARCHY
ROOT hip
{
  OFFSET 0 0 0
  CHANNELS 6 Xposition Yposition Zposition Zrotation Yrotation Xrotation
  JOINT abdomen
  {
    OFFSET 0 20.6881 -0.73152
    CHANNELS 3 Zrotation Xrotation Yrotation
    JOINT chest
    {
      OFFSET 0 11.7043 -0.48768
      CHANNELS 3 Zrotation Xrotation Yrotation
      JOINT neck
      {
        OFFSET 0 22.1894 -2.19456
        CHANNELS 3 Zrotation Xrotation Yrotation
        JOINT head
        {
          OFFSET -0.24384 7.07133 1.2192
          CHANNELS 3 Zrotation Xrotation Yrotation
          JOINT leftEye
          {
            OFFSET 4.14528 8.04674 8.04672
            CHANNELS 3 Zrotation Xrotation Yrotation
            End Site
            {
              OFFSET 1 0 0
            }
          }
          JOINT rightEye
          {
            OFFSET -3.6576 8.04674 8.04672
            CHANNELS 3 Zrotation Xrotation Yrotation
            End Site
            {
              OFFSET 1 0 0
            }
          }
        }
      }
      JOINT rCollar
      {
        OFFSET -2.68224 19.2634 -4.8768
        CHANNELS 3 Zrotation Xrotation Yrotation
        JOINT rShldr
        {
          OFFSET -8.77824 -1.95073 1.46304
          CHANNELS 3 Zrotation Xrotation Yrotation
          JOINT rForeArm
          {
            OFFSET -28.1742 -1.7115 0.48768
            CHANNELS 3 Zrotation Xrotation Yrotation
            JOINT rHand
            {
              OFFSET -22.5879 0.773209 7.07136
              CHANNELS 3 Zrotation Xrotation Yrotation
              JOINT rThumb1
              {
                OFFSET -1.2192 -0.487915 3.41376
                CHANNELS 3 Zrotation Xrotation Yrotation
                JOINT rThumb2
                {
                  OFFSET -3.37035 -0.52449 3.41376
                  CHANNELS 3 Zrotation Xrotation Yrotation
                  End Site
                  {
                    OFFSET -1.78271 -1.18214 1.43049
                  }
                }
              }
              JOINT rIndex1
              {
                OFFSET -7.75947 0.938293 5.60832
                CHANNELS 3 Zrotation Xrotation Yrotation
                JOINT rIndex2
                {
                  OFFSET -2.54057 -0.884171 1.56538
                  CHANNELS 3 Zrotation Xrotation Yrotation
                  End Site
                  {
                    OFFSET -1.62519 -0.234802 1.16502
                  }
                }
              }
              JOINT rMid1
              {
                OFFSET -8.24714 1.18213 3.41376
                CHANNELS 3 Zrotation Xrotation Yrotation
                JOINT rMid2
                {
                  OFFSET -3.10165 -0.590103 1.0647
                  CHANNELS 3 Zrotation Xrotation Yrotation
                  End Site
                  {
                    OFFSET -2.48547 -0.328903 0.83742
                  }
                }
              }
              JOINT rRing1
              {
                OFFSET -8.82822 0.546677 1.51678
                CHANNELS 3 Zrotation Xrotation Yrotation
                JOINT rRing2
                {
                  OFFSET -2.60934 -0.819778 -0.0198488
                  CHANNELS 3 Zrotation Xrotation Yrotation
                  End Site
                  {
                    OFFSET -2.33842 -0.294052 0.168128
                  }
                }
              }
              JOINT rPinky1
              {
                OFFSET -8.27202 -0.0477905 -0.4584
                CHANNELS 3 Zrotation Xrotation Yrotation
                JOINT rPinky2
                {
                  OFFSET -1.82734 -0.647385 -0.700984
                  CHANNELS 3 Zrotation Xrotation Yrotation
                  End Site
                  {
                    OFFSET -1.69225 -0.51767 -0.607171
                  }
                }
              }
            }
          }
        }
      }
      JOINT lCollar
      {
        OFFSET 2.68224 19.2634 -4.8768
        CHANNELS 3 Zrotation Xrotation Yrotation
        JOINT lShldr
        {
          OFFSET 8.77824 -1.95073 1.46304
          CHANNELS 3 Zrotation Xrotation Yrotation
          JOINT lForeArm
          {
            OFFSET 28.1742 -1.7115 0.48768
            CHANNELS 3 Zrotation Xrotation Yrotation
            JOINT lHand
            {
              OFFSET 22.5879 0.773209 7.07136
              CHANNELS 3 Zrotation Xrotation Yrotation
              JOINT lThumb1
              {
                OFFSET 1.2192 -0.487915 3.41376
                CHANNELS 3 Zrotation Xrotation Yrotation
                JOINT lThumb2
                {
                  OFFSET 3.37035 -0.52449 3.41376
                  CHANNELS 3 Zrotation Xrotation Yrotation
                  End Site
                  {
                    OFFSET 1.78271 -1.18214 1.43049
                  }
                }
              }
              JOINT lIndex1
              {
                OFFSET 7.75947 0.938293 5.60832
                CHANNELS 3 Zrotation Xrotation Yrotation
                JOINT lIndex2
                {
                  OFFSET 2.54057 -0.884171 1.56538
                  CHANNELS 3 Zrotation Xrotation Yrotation
                  End Site
                  {
                    OFFSET 1.62519 -0.234802 1.16502
                  }
                }
              }
              JOINT lMid1
              {
                OFFSET 8.24714 1.18213 3.41376
                CHANNELS 3 Zrotation Xrotation Yrotation
                JOINT lMid2
                {
                  OFFSET 3.10165 -0.590103 1.0647
                  CHANNELS 3 Zrotation Xrotation Yrotation
                  End Site
                  {
                    OFFSET 2.48547 -0.328903 0.83742
                  }
                }
              }
              JOINT lRing1
              {
                OFFSET 8.82822 0.546677 1.51678
                CHANNELS 3 Zrotation Xrotation Yrotation
                JOINT lRing2
                {
                  OFFSET 2.60934 -0.819778 -0.0198488
                  CHANNELS 3 Zrotation Xrotation Yrotation
                  End Site
                  {
                    OFFSET 2.33842 -0.294052 0.168128
                  }
                }
              }
              JOINT lPinky1
              {
                OFFSET 8.27202 -0.0477905 -0.4584
                CHANNELS 3 Zrotation Xrotation Yrotation
                JOINT lPinky2
                {
                  OFFSET 1.82734 -0.647385 -0.700984
                  CHANNELS 3 Zrotation Xrotation Yrotation
                  End Site
                  {
                    OFFSET 1.69225 -0.51767 -0.607171
                  }
                }
              }
            }
          }
        }
      }
    }
  }
  JOINT rButtock
  {
    OFFSET -8.77824 4.35084 1.2192
    CHANNELS 3 Zrotation Xrotation Yrotation
    JOINT rThigh
    {
      OFFSET 0 -1.70687 -2.19456
      CHANNELS 3 Zrotation Xrotation Yrotation
      JOINT rShin
      {
        OFFSET 0 -36.8199 0.73152
        CHANNELS 3 Zrotation Xrotation Yrotation
        JOINT rFoot
        {
          OFFSET 0.73152 -45.1104 -5.12064
          CHANNELS 3 Zrotation Xrotation Yrotation
          End Site
          {
            OFFSET -1.1221 -3.69964 12.103
          }
        }
      }
    }
  }
  JOINT lButtock
  {
    OFFSET 8.77824 4.35084 1.2192
    CHANNELS 3 Zrotation Xrotation Yrotation
    JOINT lThigh
    {
      OFFSET 0 -1.70687 -2.19456
      CHANNELS 3 Zrotation Xrotation Yrotation
      JOINT lShin
      {
        OFFSET 0 -36.8199 0.73152
        CHANNELS 3 Zrotation Xrotation Yrotation
        JOINT lFoot
        {
          OFFSET -0.73152 -45.1104 -5.12064
          CHANNELS 3 Zrotation Xrotation Yrotation
          End Site
          {
            OFFSET 1.1221 -3.69964 12.103
          }
        }
      }
    }
  }
}
MOTION
Frames:	4
Frame Time:	0.00833333
2.004524 71.79008 -4.146274 -178.50415 1.0067556 -176.46751 -1.8896135 4.367333 3.038669 2.7511697 -8.470461 1.0055805 -5.485199 10.604661 -4.0124393 6.992303 -17.034208 -6.7965164 0.06384455 -0.044531982 -0.0001768399 0.087024204 0.025304481 0.049893364 -0.039980978 0.016246948 0.011531796 -4.4139514 -12.44746 45.09299 -27.846088 -41.160305 86.12261 -1.1579144 28.542187 4.383267 0.020986801 -0.010909302 0.079657815 -0.023043849 0.00045258636 -0.12106903 -0.011831559 -0.05820431 -0.05745621 7.7085 5.460359 0.32321483 0.06761037 -0.058992546 -0.07508903 2.9704738 0.98222494 0.15532452 -0.06623481 -0.048228137 0.05510765 10.257012 0.72226626 0.026889488 0.024520367 0.07529203 0.023712121 2.289064 -0.7441871 -0.24139102 -0.07287431 0.04604467 -0.043453574 -2.6974604 -11.084863 -72.25436 28.22251 -38.87453 -82.02564 0.5786305 21.795256 -3.2430348 -0.06419786 -0.030508054 0.0189927 -0.031816904 0.070845366 -0.0169491 0.023066789 0.04810151 -0.013568311 -7.658854 5.4350815 -0.35783288 0.027534928 0.054442853 0.09749825 -2.8887653 0.89049244 -0.1723225 0.109358124 -0.008105966 0.04227339 -10.258759 0.7071968 -0.10620104 0.055201545 0.050568916 -0.032766577 -2.2164252 -0.7772971 0.18842158 0.071005404 -0.0030181585 0.043525618 4.8424535 -41.218773 -2.6691988 -1.6279815 68.4791 3.0484982 -7.5621157 -25.583738 -13.283655 0.0052012973 0.06544196 0.06001041 -11.862393 -39.458847 -9.897829 1.7962141 66.86368 -2.101671 12.735213 -23.435553 23.665232
1.9794093 71.91889 -3.951244 -178.91302 0.63389266 -176.31728 -2.8625796 4.499396 2.9734523 2.9672177 -8.674944 0.96864593 -5.5064254 10.765569 -4.053773 7.3802814 -17.304226 -6.8702507 0.039992712 -0.029245853 0.033762824 0.09356612 0.009645258 0.022284325 -0.014276004 0.00967738 0.016189672 -5.0837264 -13.238118 44.826977 -27.794239 -40.729786 85.13436 -1.0729488 29.075806 4.5870085 0.0134116495 -0.029707115 0.050168585 -0.030957032 0.01581687 -0.10723113 -0.016025504 -0.052409396 -0.051482473 7.700529 5.482315 0.31553212 0.06291978 -0.07238898 -0.040684476 2.9431736 0.98843735 0.16005498 -0.08527046 -0.045696266 0.039872155 10.279017 0.7154875 0.0119929 0.041950148 0.07000972 0.030859146 2.266487 -0.7399578 -0.24625425 -0.0607329 0.043634664 -0.01999666 -2.6142073 -12.069571 -72.35989 28.16381 -38.51014 -81.33784 0.65266746 21.350945 -3.1243806 -0.03865041 -0.030973518 -0.0017699318 -0.036404748 0.060972124 -0.030137477 0.0047331844 0.019102326 -0.03440712 -7.685074 5.4384694 -0.37007374 0.038860455 0.03781588 0.078606844 -2.9076378 0.9014024 -0.17272604 0.09930711 0.000868151 0.047856398 -10.262327 0.68941987 -0.098527335 0.014987554 0.023907129 -0.058122884 -2.2170174 -0.7802839 0.18505862 0.07855754 -0.011880968 0.016844563 3.887921 -42.59194 -3.1112118 -1.6733239 70.28233 2.9630592 -6.570319 -23.509619 -11.64133 0.015676642 0.049889658 0.052005734 -12.667327 -39.194572 -10.083746 1.9251171 66.522354 -2.1196058 12.245291 -23.838348 22.271566
1.9593426 72.128265 -3.7505465 -179.27162 0.61405754 -176.30098 -4.100657 4.839171 3.0326579 3.1775227 -8.846831 0.9854629 -5.4381046 10.858597 -4.176106 7.586893 -17.712175 -6.9242725 0.029396066 -0.018977074 0.056210406 0.096049204 -0.00081068417 0.006467358 -0.015513682 0.0072858916 0.029089853 -5.8453736 -13.767199 44.5188 -27.793434 -40.285744 84.26355 -1.0922054 29.568527 4.644303 -0.0066480073 -0.036077973 0.02694656 -0.03614781 0.010079652 -0.085460044 -0.04419335 -0.047573905 -0.053911015 7.6860447 5.4917 0.32577845 0.055342827 -0.057405993 -0.019201953 2.9377534 1.0059164 0.14261112 -0.0936209 -0.039964166 0.026592208 10.289388 0.7174678 0.006862143 0.055888206 0.062318403 0.03559251 2.2397943 -0.75046384 -0.24636817 -0.046851434 0.04822749 -0.012254302 -2.555586 -12.712649 -72.45336 28.118322 -38.137745 -80.50221 0.5680767 21.066223 -3.175122 -0.016757699 -0.0241445 -0.0033496155 -0.016579807 0.062127993 -0.04918305 0.013399197 0.00956031 -0.040668897 -7.7007265 5.4490476 -0.38369194 0.036211763 0.025536554 0.06431142 -2.919155 0.9167169 -0.17996152 0.074356996 -0.012700112 0.062833324 -10.25634 0.68038785 -0.099697344 -0.0042313393 0.012439145 -0.0692276 -2.2170458 -0.78779817 0.20662318 0.084585235 -0.012733776 -0.005129545 2.880057 -44.815964 -3.1503701 -1.7701676 72.796524 2.8224514 -5.300893 -20.613417 -10.411954 0.03126503 0.049980212 0.049087007 -13.057544 -38.605175 -9.814567 1.8700776 66.06014 -2.1805031 11.555174 -24.408804 20.170645
1.9510763 72.13654 -3.7234066 -179.75493 0.83717215 -176.52533 -5.3807163 5.5522738 3.1858628 3.3100963 -9.101693 1.0194836 -5.382167 10.913332 -4.2412467 7.681549 -18.160429 -6.986224 0.024984812 -0.019977262 0.07551954 0.09732883 -0.0061275098 0.0023211818 -0.034137957 0.0023949556 0.04122434 -6.501775 -14.276891 44.340115 -27.783628 -39.8177 83.365135 -1.1984116 30.054304 4.633347 -0.037347876 -0.031772066 0.011642229 -0.039910726 -0.00800105 -0.062455848 -0.075419106 -0.04702073 -0.056331642 7.679556 5.4919114 0.35243556 0.049797766 -0.03422875 -0.003746337 2.9412012 1.0290651 0.11864172 -0.08580336 -0.039616082 0.012319575 10.29187 0.7196469 0.0082754735 0.06594955 0.05546339 0.03352311 2.2146673 -0.75968784 -0.2423306 -0.039954454 0.05147164 -0.019599384 -2.5622723 -13.050661 -72.49496 28.135754 -37.786217 -79.78052 0.5625034 21.371283 -3.2009785 -0.007804982 -0.010077638 -0.003336206 0.016307434 0.06985103 -0.0666668 0.030323006 0.00371461 -0.03667195 -7.711292 5.4553294 -0.39824608 0.021558974 0.014731725 0.05733701 -2.9227917 0.9329298 -0.1823809 0.04965963 -0.035603028 0.06705081 -10.253078 0.67978853 -0.10420597 -0.0073004267 0.0048381193 -0.066756904 -2.2204885 -0.79289246 0.23227102 0.08964807 -0.012315109 -0.012929354 1.7417667 -47.872276 -2.9335504 -1.6834809 76.11058 2.408893 -3.6312463 -16.003012 -9.337619 0.046172086 0.05310744 0.056356322 -13.082005 -37.79923 -9.165836 1.7180732 65.41395 -2.2318912 10.682493 -25.05663 18.238155
